<?xml version="1.0" encoding="UTF-8"?>
<svg version="1.1" xmlns="http://www.w3.org/2000/svg" width="500" height="500">
<path d="M0 0 C165 0 330 0 500 0 C500 165 500 330 500 500 C335 500 170 500 0 500 C0 335 0 170 0 0 Z " fill="#FEFEFE" transform="translate(0,0)"/>
<path d="M0 0 C4.5478125 -0.12375 4.5478125 -0.12375 9.1875 -0.25 C10.60712036 -0.30462402 10.60712036 -0.30462402 12.05541992 -0.36035156 C16.13511772 -0.41404889 18.47468284 -0.2971491 22.09375 1.75 C24 4 24 4 24.48828125 6.140625 C24.32552083 8.09375 24.16276042 10.046875 24 12 C22.02 12.99 22.02 12.99 20 14 C20 14.66 20 15.32 20 16 C20.639375 16.309375 21.27875 16.61875 21.9375 16.9375 C24 18 24 18 25 19 C25.43784542 22.85303968 25.30585252 24.54122122 23.125 27.8125 C20.98152732 30.019016 20.07620133 30.93801912 17.02880859 31.11352539 C16.24328613 31.10828857 15.45776367 31.10305176 14.6484375 31.09765625 C13.88192871 31.09515869 13.11541992 31.09266113 12.32568359 31.09008789 C11.35195801 31.08098389 10.37823242 31.07187988 9.375 31.0625 C6.28125 31.041875 3.1875 31.02125 0 31 C0 20.77 0 10.54 0 0 Z " fill="#29548B" transform="translate(139,234)"/>
<path d="M0 0 C3.01856526 1.49826597 5.29921963 3.06875152 7 6 C7 8.64 7 11.28 7 14 C1.72 14 -3.56 14 -9 14 C-8.34 15.32 -7.68 16.64 -7 18 C-5.33388095 18.042721 -3.66617115 18.04063832 -2 18 C-1.67 17.67 -1.34 17.34 -1 17 C1.67058851 16.85884839 4.32432238 16.95752893 7 17 C6.11593727 19.97366555 5.31696033 21.7127547 3 23.8125 C-1.36356627 25.53974498 -5.36948609 25.69305389 -10 25 C-13.66422065 22.86253796 -15.37726527 20.85223113 -17 17 C-17.73651586 12.28972412 -17.42246633 8.82984458 -15.25 4.5625 C-11.00395981 -0.273268 -6.2195088 -1.16876675 0 0 Z " fill="#29548B" transform="translate(227,240)"/>
<path d="M0 0 C2.64 0 5.28 0 8 0 C8.06058594 1.21558594 8.12117187 2.43117187 8.18359375 3.68359375 C8.26798332 5.26824228 8.3526321 6.85287702 8.4375 8.4375 C8.47681641 9.23994141 8.51613281 10.04238281 8.55664062 10.86914062 C8.4054296 14.75239561 8.4054296 14.75239561 10 18 C12.5 18.16666667 12.5 18.16666667 15 18 C17.11925604 15.88074396 16.41831017 11.3803907 16.5625 8.4375 C16.60568359 7.63119141 16.64886719 6.82488281 16.69335938 5.99414062 C16.79975262 3.99631195 16.90040888 1.9981793 17 0 C19.64 0 22.28 0 25 0 C25 8.25 25 16.5 25 25 C22.36 25 19.72 25 17 25 C17 24.34 17 23.68 17 23 C16.484375 23.33 15.96875 23.66 15.4375 24 C12.03878205 25.39434583 9.64405552 25.44751559 6 25 C2.84045695 22.45862841 1.28459114 20.85377341 0 17 C-0.07973476 15.66474283 -0.10771338 14.32587917 -0.09765625 12.98828125 C-0.09443359 12.23095703 -0.09121094 11.47363281 -0.08789062 10.69335938 C-0.07951172 9.90767578 -0.07113281 9.12199219 -0.0625 8.3125 C-0.05798828 7.51521484 -0.05347656 6.71792969 -0.04882812 5.89648438 C-0.0370585 3.93095743 -0.01912348 1.96546915 0 0 Z " fill="#2D578D" transform="translate(181,240)"/>
<path d="M0 0 C2.64 0 5.28 0 8 0 C8 10.89 8 21.78 8 33 C5.36 33 2.72 33 0 33 C0 22.11 0 11.22 0 0 Z " fill="#30598F" transform="translate(168,232)"/>
<path d="M0 0 C0.33 0 0.66 0 1 0 C1.125 6.75 1.125 6.75 0 9 C-1.8125 9.37890625 -1.8125 9.37890625 -4 9.5625 C-6.78932058 9.62665408 -6.78932058 9.62665408 -9 11 C-11.4375 11.1875 -11.4375 11.1875 -14 11 C-14.66 10.34 -15.32 9.68 -16 9 C-16 8.01 -16 7.02 -16 6 C-10.72 6 -5.44 6 0 6 C0 4.02 0 2.04 0 0 Z " fill="#C9D4E2" transform="translate(234,248)"/>
<path d="M0 0 C6.75 -0.125 6.75 -0.125 9 1 C9 2.65 9 4.3 9 6 C6.04335481 7.4783226 3.25770263 7.06032783 0 7 C0 4.69 0 2.38 0 0 Z " fill="#F7F9FB" transform="translate(147,252)"/>
<path d="M0 0 C2.33294775 -0.04241723 4.66702567 -0.04092937 7 0 C8 1 8 1 8.0625 3.5625 C8.041875 4.366875 8.02125 5.17125 8 6 C5.36 6 2.72 6 0 6 C0 4.02 0 2.04 0 0 Z " fill="#FBFCFC" transform="translate(147,240)"/>
<path d="M0 0 C1.65 0 3.3 0 5 0 C5.66 1.32 6.32 2.64 7 4 C4.03 4 1.06 4 -2 4 C-1.34 2.68 -0.68 1.36 0 0 Z " fill="#F1F4F7" transform="translate(220,246)"/>
</svg>
