<?xml version="1.0" encoding="UTF-8"?>
<svg version="1.1" xmlns="http://www.w3.org/2000/svg" width="500" height="500">
<path d="M0 0 C165 0 330 0 500 0 C500 165 500 330 500 500 C335 500 170 500 0 500 C0 335 0 170 0 0 Z " fill="#FEFEFE" transform="translate(0,0)"/>
<path d="M0 0 C1.28003906 1.08087891 1.28003906 1.08087891 2.5859375 2.18359375 C21.70243998 18.68260589 34.84628238 41.62295435 41 66 C41.29777344 67.07765625 41.59554687 68.1553125 41.90234375 69.265625 C44.12348116 78.72337141 44.29144232 88.13421728 44.3125 97.8125 C44.31608521 98.4798114 44.31967041 99.1471228 44.32336426 99.83465576 C44.40916845 129.55302841 32.98047767 158.31832919 14 181 C13.3709375 181.76957031 12.741875 182.53914062 12.09375 183.33203125 C-9.46299415 208.95516123 -41.76912569 222.92706403 -74.55322266 225.80957031 C-79.75674186 226.21455385 -84.79112183 226.3452396 -90 226 C-90.74314453 225.95214355 -91.48628906 225.90428711 -92.25195312 225.85498047 C-103.29564961 225.09252227 -113.50602671 223.65506109 -124 220 C-125.0621875 219.64035156 -126.124375 219.28070313 -127.21875 218.91015625 C-147.41389161 211.63108215 -170.49575875 197.97484679 -183 180 C-183 179.01 -183 178.02 -183 177 C-182.26700684 176.60844727 -181.53401367 176.21689453 -180.77880859 175.81347656 C-167.53458586 168.73584326 -154.29841791 161.6459801 -141.12426758 154.43847656 C-133.10700708 150.0526375 -125.07070978 145.70237003 -117.02832031 141.36279297 C-112.96486008 139.16642146 -108.91592554 136.9657364 -104.93359375 134.625 C-102 133 -102 133 -100 133 C-99.67 149.5 -99.34 166 -99 183 C-94.40980467 181.17347425 -94.40980467 181.17347425 -90.57421875 178.56640625 C-89.95111816 178.08824463 -89.32801758 177.61008301 -88.68603516 177.11743164 C-88.02651855 176.6043042 -87.36700195 176.09117676 -86.6875 175.5625 C-81.259931 171.413511 -75.77925394 167.39704281 -70.125 163.5625 C-63.59164901 159.12438808 -57.17274957 154.54685269 -50.78173828 149.90649414 C-45.71542456 146.23083738 -40.62085769 142.59922801 -35.5 139 C-29.57404489 134.83266652 -23.68173444 130.6218495 -17.8125 126.375 C-17.06742188 125.83657471 -16.32234375 125.29814941 -15.5546875 124.7434082 C-11.97311776 122.15440222 -8.39569493 119.55994276 -4.82421875 116.95703125 C-3.549595 116.03369425 -2.27486164 115.11050852 -1 114.1875 C-0.41839111 113.76065918 0.16321777 113.33381836 0.76245117 112.89404297 C4.77318424 110 4.77318424 110 7 110 C8.21875 111.49609375 8.21875 111.49609375 9.5 113.4375 C11.2865363 116.22531847 11.2865363 116.22531847 14 118 C14.14695312 117.47535156 14.29390625 116.95070312 14.4453125 116.41015625 C16.93527524 107.80976771 19.9893879 99.42971389 23 91 C13.76 91 4.52 91 -5 91 C-4.01 93.31 -3.02 95.62 -2 98 C-2 98.99 -2 99.98 -2 101 C-4.43799722 102.94978752 -6.85324255 104.70041182 -9.4375 106.4375 C-11.01057242 107.52060716 -12.58348479 108.60394679 -14.15625 109.6875 C-14.96449219 110.23921875 -15.77273438 110.7909375 -16.60546875 111.359375 C-20.24103917 113.85030416 -23.83971555 116.39243668 -27.4375 118.9375 C-28.48345337 119.67504517 -28.48345337 119.67504517 -29.55053711 120.42749023 C-35.48680574 124.61895655 -41.37577534 128.87430618 -47.26049805 133.13769531 C-53.09351497 137.3585338 -58.96180231 141.52692528 -64.85375977 145.66503906 C-68.28792439 148.07830144 -71.70940909 150.50597596 -75.10546875 152.97265625 C-75.75225586 153.44098877 -76.39904297 153.90932129 -77.06542969 154.3918457 C-78.28380077 155.27575263 -79.49945293 156.16342354 -80.71191406 157.05541992 C-84.77786146 160 -84.77786146 160 -87 160 C-87.33 144.82 -87.66 129.64 -88 114 C-92.50173383 114.90034677 -95.73126555 116.22192395 -99.6796875 118.359375 C-100.32040695 118.69997452 -100.9611264 119.04057404 -101.6212616 119.39149475 C-103.70948483 120.50432636 -105.79231659 121.62683954 -107.875 122.75 C-109.32725169 123.52720017 -110.77964553 124.30413476 -112.23217773 125.08081055 C-121.50317606 130.05158684 -130.68674834 135.16315788 -139.81665039 140.38891602 C-147.34072361 144.67810199 -154.98373675 148.70708891 -162.68701172 152.6640625 C-167.27797826 155.02908179 -171.8241828 157.43867738 -176.3046875 160.0078125 C-177.13121826 160.48065674 -177.95774902 160.95350098 -178.80932617 161.44067383 C-180.35225897 162.33069943 -181.88932035 163.2310125 -183.41918945 164.14331055 C-188.44807491 167.04342227 -188.44807491 167.04342227 -191.06982422 166.8371582 C-193.57924478 165.74876925 -194.13609031 164.67778672 -195.40234375 162.2734375 C-195.81540771 161.49613281 -196.22847168 160.71882812 -196.65405273 159.91796875 C-197.07759033 159.07878906 -197.50112793 158.23960937 -197.9375 157.375 C-198.37843994 156.51777344 -198.81937988 155.66054688 -199.27368164 154.77734375 C-202.98885418 147.37860547 -205.73188023 139.97082089 -208 132 C-208.30550781 131.00355469 -208.61101562 130.00710938 -208.92578125 128.98046875 C-214.63367414 109.63855684 -214.29177852 85.35339966 -209 66 C-208.83371094 65.35885254 -208.66742188 64.71770508 -208.49609375 64.05712891 C-203.63190282 45.55068397 -194.23165975 28.66804726 -182 14 C-181.28328125 13.13632813 -180.5665625 12.27265625 -179.828125 11.3828125 C-159.13524653 -12.48838391 -128.55117354 -27.54483133 -97.25 -30.625 C-61.69869992 -33.07994911 -27.04730512 -23.81960556 0 0 Z " fill="#234E87" transform="translate(334,126)"/>
<path d="M0 0 C8.25 0 16.5 0 25 0 C25.45332144 13.1874695 25.81953964 26.36970539 26.03624344 39.5632267 C26.140298 45.69094592 26.28116304 51.81302709 26.50878906 57.9375 C26.72743186 63.85787769 26.84592973 69.77286694 26.89754486 75.69697189 C26.93427743 77.94704457 27.0060297 80.19684726 27.11460114 82.44459915 C27.90725646 99.54795115 27.90725646 99.54795115 23.02207947 105.34856415 C16.2134008 111.43549084 8.43365961 115.62653616 0 119 C0 79.73 0 40.46 0 0 Z " fill="#FAFBFC" transform="translate(281,137)"/>
<path d="M0 0 C8.25 0 16.5 0 25 0 C25 26.4 25 52.8 25 80 C2 92 2 92 0 92 C0 61.64 0 31.28 0 0 Z " fill="#FBFCFD" transform="translate(214,157)"/>
<path d="M0 0 C8.25 0 16.5 0 25 0 C25 22.77 25 45.54 25 69 C2 82 2 82 0 82 C0 54.94 0 27.88 0 0 Z " fill="#487EC4" transform="translate(182,185)"/>
<path d="M0 0 C8.58 0 17.16 0 26 0 C26.40912176 8.25062226 26.73812248 16.49319711 26.93261909 24.7512846 C27.02604583 28.58749157 27.15227366 32.41632997 27.35791016 36.24829102 C28.65121087 60.97308523 28.65121087 60.97308523 24.22351074 67.69830322 C18.80781756 73.2232817 12.27460576 76.57513141 5 79 C4.98598145 77.1605481 4.98598145 77.1605481 4.97167969 75.28393555 C4.93183536 70.73815457 4.86609244 66.19305438 4.79248047 61.64770508 C4.76423851 59.67969502 4.74304006 57.71157085 4.72900391 55.7434082 C4.70761879 52.9155827 4.6609926 50.08913385 4.609375 47.26171875 C4.60814636 46.38037766 4.60691772 45.49903656 4.60565186 44.59098816 C4.55113006 42.32197071 4.47911147 40.21897339 4 38 C2.68942533 36.97035355 1.35649277 35.96835177 0 35 C-0.35599078 32.21427646 -0.46710804 29.82963409 -0.390625 27.05078125 C-0.38496521 26.27816452 -0.37930542 25.50554779 -0.37347412 24.70951843 C-0.35109327 22.24321371 -0.30089703 19.77836508 -0.25 17.3125 C-0.22993706 15.63999495 -0.21168592 13.96746711 -0.1953125 12.29492188 C-0.15462447 8.19560319 -0.07634738 4.09942994 0 0 Z " fill="#477DC2" transform="translate(246,199)"/>
<path d="M0 0 C4.5478125 -0.12375 4.5478125 -0.12375 9.1875 -0.25 C10.60712036 -0.30462402 10.60712036 -0.30462402 12.05541992 -0.36035156 C16.13511772 -0.41404889 18.47468284 -0.2971491 22.09375 1.75 C24 4 24 4 24.48828125 6.140625 C24.32552083 8.09375 24.16276042 10.046875 24 12 C22.02 12.99 22.02 12.99 20 14 C20 14.66 20 15.32 20 16 C20.639375 16.309375 21.27875 16.61875 21.9375 16.9375 C24 18 24 18 25 19 C25.43784542 22.85303968 25.30585252 24.54122122 23.125 27.8125 C20.98152732 30.019016 20.07620133 30.93801912 17.02880859 31.11352539 C16.24328613 31.10828857 15.45776367 31.10305176 14.6484375 31.09765625 C13.88192871 31.09515869 13.11541992 31.09266113 12.32568359 31.09008789 C11.35195801 31.08098389 10.37823242 31.07187988 9.375 31.0625 C6.28125 31.041875 3.1875 31.02125 0 31 C0 20.77 0 10.54 0 0 Z " fill="#29548B" transform="translate(139,379)"/>
<path d="M0 0 C3.01856526 1.49826597 5.29921963 3.06875152 7 6 C7 8.64 7 11.28 7 14 C1.72 14 -3.56 14 -9 14 C-8.34 15.32 -7.68 16.64 -7 18 C-5.33388095 18.042721 -3.66617115 18.04063832 -2 18 C-1.67 17.67 -1.34 17.34 -1 17 C1.67058851 16.85884839 4.32432238 16.95752893 7 17 C6.11593727 19.97366555 5.31696033 21.7127547 3 23.8125 C-1.36356627 25.53974498 -5.36948609 25.69305389 -10 25 C-13.66422065 22.86253796 -15.37726527 20.85223113 -17 17 C-17.73651586 12.28972412 -17.42246633 8.82984458 -15.25 4.5625 C-11.00395981 -0.273268 -6.2195088 -1.16876675 0 0 Z " fill="#29548B" transform="translate(227,385)"/>
<path d="M0 0 C2.64 0 5.28 0 8 0 C8.06058594 1.21558594 8.12117187 2.43117188 8.18359375 3.68359375 C8.26798332 5.26824228 8.3526321 6.85287702 8.4375 8.4375 C8.47681641 9.23994141 8.51613281 10.04238281 8.55664062 10.86914062 C8.4054296 14.75239561 8.4054296 14.75239561 10 18 C12.5 18.16666667 12.5 18.16666667 15 18 C17.11925604 15.88074396 16.41831017 11.3803907 16.5625 8.4375 C16.60568359 7.63119141 16.64886719 6.82488281 16.69335938 5.99414062 C16.79975262 3.99631195 16.90040888 1.9981793 17 0 C19.64 0 22.28 0 25 0 C25 8.25 25 16.5 25 25 C22.36 25 19.72 25 17 25 C17 24.34 17 23.68 17 23 C16.484375 23.33 15.96875 23.66 15.4375 24 C12.03878205 25.39434583 9.64405552 25.44751559 6 25 C2.84045695 22.45862841 1.28459114 20.85377341 0 17 C-0.07973476 15.66474283 -0.10771338 14.32587917 -0.09765625 12.98828125 C-0.09443359 12.23095703 -0.09121094 11.47363281 -0.08789062 10.69335938 C-0.07951172 9.90767578 -0.07113281 9.12199219 -0.0625 8.3125 C-0.05798828 7.51521484 -0.05347656 6.71792969 -0.04882812 5.89648438 C-0.0370585 3.93095743 -0.01912348 1.96546915 0 0 Z " fill="#2D578D" transform="translate(181,385)"/>
<path d="M0 0 C2.64 0 5.28 0 8 0 C8 10.89 8 21.78 8 33 C5.36 33 2.72 33 0 33 C0 22.11 0 11.22 0 0 Z " fill="#30598F" transform="translate(168,377)"/>
<path d="M0 0 C0.33 0 0.66 0 1 0 C1.125 6.75 1.125 6.75 0 9 C-1.8125 9.37890625 -1.8125 9.37890625 -4 9.5625 C-6.78932058 9.62665408 -6.78932058 9.62665408 -9 11 C-11.4375 11.1875 -11.4375 11.1875 -14 11 C-14.66 10.34 -15.32 9.68 -16 9 C-16 8.01 -16 7.02 -16 6 C-10.72 6 -5.44 6 0 6 C0 4.02 0 2.04 0 0 Z " fill="#C9D4E2" transform="translate(234,393)"/>
<path d="M0 0 C6.75 -0.125 6.75 -0.125 9 1 C9 2.65 9 4.3 9 6 C6.04335481 7.4783226 3.25770263 7.06032783 0 7 C0 4.69 0 2.38 0 0 Z " fill="#F7F9FB" transform="translate(147,397)"/>
<path d="M0 0 C2.33294775 -0.04241723 4.66702567 -0.04092937 7 0 C8 1 8 1 8.0625 3.5625 C8.041875 4.366875 8.02125 5.17125 8 6 C5.36 6 2.72 6 0 6 C0 4.02 0 2.04 0 0 Z " fill="#FBFCFC" transform="translate(147,385)"/>
<path d="M0 0 C1.65 0 3.3 0 5 0 C5.66 1.32 6.32 2.64 7 4 C4.03 4 1.06 4 -2 4 C-1.34 2.68 -0.68 1.36 0 0 Z " fill="#F1F4F7" transform="translate(220,391)"/>
</svg>
